<?xml version="1.0" encoding="UTF-8" standalone="no"?><!DOCTYPE svg PUBLIC "-//W3C//DTD SVG 1.1//EN" "http://www.w3.org/Graphics/SVG/1.1/DTD/svg11.dtd"><!-- Generated by graphviz version 2.40.1 (20161225.0304)
 --><!-- Title: API_ER Pages: 1 --><svg xmlns="http://www.w3.org/2000/svg" xmlns:xlink="http://www.w3.org/1999/xlink" width="376pt" height="139pt" viewBox="0.00 0.00 375.82 138.83">
<g id="graph0" class="graph" transform="scale(1 1) rotate(0) translate(4 134.8313)">
<title>API_ER</title>
<polygon fill="#ffffff" stroke="transparent" points="-4,4 -4,-134.8313 371.817,-134.8313 371.817,4 -4,4"/>
<!-- PersonList -->
<g id="node1" class="node">
<title>PersonList</title>
<polygon fill="#add8e6" stroke="#add8e6" points="139.0963,-36 -.0321,-36 -.0321,0 139.0963,0 139.0963,-36"/>
<text text-anchor="middle" x="69.5321" y="-13.8" font-family="Times,serif" font-size="14.00" fill="#000000">{PersonList(request)}</text>
</g>
<!-- PersonDetail -->
<g id="node2" class="node">
<title>PersonDetail</title>
<polygon fill="#add8e6" stroke="#add8e6" points="340.4161,-36 174.6481,-36 174.6481,0 340.4161,0 340.4161,-36"/>
<text text-anchor="middle" x="257.5321" y="-13.8" font-family="Times,serif" font-size="14.00" fill="#000000">{PersonDetail(request,id)}</text>
</g>
<!-- EndpointAPI -->
<g id="node3" class="node">
<title>EndpointAPI</title>
<ellipse fill="#ffffff" stroke="#add8e6" cx="69.5321" cy="-101.4156" rx="59.9115" ry="29.3315"/>
<text text-anchor="middle" x="69.5321" y="-105.6156" font-family="Times,serif" font-size="14.00" fill="#000000">/api/</text>
<text text-anchor="middle" x="69.5321" y="-88.8156" font-family="Times,serif" font-size="14.00" fill="#000000">POST, GET</text>
</g>
<!-- EndpointAPI&#45;&gt;PersonList -->
<g id="edge1" class="edge">
<title>EndpointAPI-&gt;PersonList</title>
<path fill="none" stroke="#000000" d="M69.5321,-71.7715C69.5321,-63.5664 69.5321,-54.6796 69.5321,-46.5388"/>
<polygon fill="#000000" stroke="#000000" points="73.0322,-46.3865 69.5321,-36.3866 66.0322,-46.3866 73.0322,-46.3865"/>
</g>
<!-- EndpointAPIID -->
<g id="node4" class="node">
<title>EndpointAPIID</title>
<ellipse fill="#ffffff" stroke="#add8e6" cx="257.5321" cy="-101.4156" rx="110.0702" ry="29.3315"/>
<text text-anchor="middle" x="257.5321" y="-105.6156" font-family="Times,serif" font-size="14.00" fill="#000000">/api/{user:id}</text>
<text text-anchor="middle" x="257.5321" y="-88.8156" font-family="Times,serif" font-size="14.00" fill="#000000">GET, PATCH, DELETE</text>
</g>
<!-- EndpointAPIID&#45;&gt;PersonDetail -->
<g id="edge2" class="edge">
<title>EndpointAPIID-&gt;PersonDetail</title>
<path fill="none" stroke="#000000" d="M257.5321,-71.7715C257.5321,-63.5664 257.5321,-54.6796 257.5321,-46.5388"/>
<polygon fill="#000000" stroke="#000000" points="261.0322,-46.3865 257.5321,-36.3866 254.0322,-46.3866 261.0322,-46.3865"/>
</g>
</g>
</svg>